<svg xmlns="http://www.w3.org/2000/svg" viewBox="0 0 24 24" fill="none" stroke="currentColor" stroke-width="1.5" stroke-linecap="round" stroke-linejoin="round">
  <!-- Left page -->
  <path d="M12 4 C10 3 7 2.5 3 3 L3 19 C7 18.5 10 19 12 20"/>
  <!-- Right page -->
  <path d="M12 4 C14 3 17 2.5 21 3 L21 19 C17 18.5 14 19 12 20"/>
  <!-- Spine -->
  <line x1="12" y1="4" x2="12" y2="20"/>
  <!-- Left page lines -->
  <line x1="6" y1="7" x2="10" y2="6.5" stroke-width="0.8" opacity="0.3"/>
  <line x1="6" y1="10" x2="10" y2="9.5" stroke-width="0.8" opacity="0.3"/>
  <line x1="6" y1="13" x2="10" y2="12.5" stroke-width="0.8" opacity="0.3"/>
  <!-- Right page lines -->
  <line x1="14" y1="6.5" x2="18" y2="7" stroke-width="0.8" opacity="0.3"/>
  <line x1="14" y1="9.5" x2="18" y2="10" stroke-width="0.8" opacity="0.3"/>
  <line x1="14" y1="12.5" x2="18" y2="13" stroke-width="0.8" opacity="0.3"/>
</svg>
