<svg xmlns="http://www.w3.org/2000/svg" viewBox="0 0 100 90" fill="none" stroke="currentColor">
  <!-- Left page group -->
  <path d="M48 12 Q48 10 46 10 L12 14 Q8 14.5 8 18.5 L8 74 Q8 78 12 77.5 L46 73.5 Q48 73.2 48 71.2 Z" stroke-width="3" stroke-linejoin="round"/>
  <!-- Right page group -->
  <path d="M52 12 Q52 10 54 10 L88 14 Q92 14.5 92 18.5 L92 74 Q92 78 88 77.5 L54 73.5 Q52 73.2 52 71.2 Z" stroke-width="3" stroke-linejoin="round"/>
  <!-- Spine -->
  <line x1="50" y1="10" x2="50" y2="73" stroke-width="2"/>
  <!-- Left page curls -->
  <path d="M48 14 Q48 12 45 12 L16 15.5 Q13 16 13 19 L13 71 Q13 74 16 73.5 L45 70 Q48 69.7 48 67.7" stroke-width="2" stroke-linejoin="round"/>
  <!-- Right page curls -->
  <path d="M52 14 Q52 12 55 12 L84 15.5 Q87 16 87 19 L87 71 Q87 74 84 73.5 L55 70 Q52 69.7 52 67.7" stroke-width="2" stroke-linejoin="round"/>
  <!-- Left page top curve -->
  <path d="M48 8 C48 4 46 4 44 4 L14 8" stroke-width="2.5" fill="none" stroke-linecap="round"/>
  <!-- Right page top curve -->
  <path d="M52 8 C52 4 54 4 56 4 L86 8" stroke-width="2.5" fill="none" stroke-linecap="round"/>
</svg>
