<svg xmlns="http://www.w3.org/2000/svg" viewBox="0 0 24 24" fill="none" stroke="currentColor" stroke-width="1.5" stroke-linecap="round" stroke-linejoin="round">
  <!-- Cell membrane (irregular blob shape) -->
  <path d="M12 2 C15 2.5 19 4 20.5 7 C22 10 22 14 20 17 C18 20 15 22 12 22 C9 22 5.5 20.5 4 17.5 C2.5 14.5 2 10.5 3.5 7.5 C5 4.5 9 1.5 12 2Z" stroke-width="1.5"/>
  <!-- Nucleus -->
  <ellipse cx="11" cy="11.5" rx="4" ry="3.5" fill="currentColor" stroke="none" opacity="0.25"/>
  <ellipse cx="11" cy="11.5" rx="4" ry="3.5" fill="none" stroke-width="1.2"/>
  <!-- Nucleolus -->
  <circle cx="10" cy="11" r="1.2" fill="currentColor" stroke="none" opacity="0.5"/>
  <!-- Organelles (small dots) -->
  <circle cx="17" cy="8" r="0.8" fill="currentColor" stroke="none" opacity="0.4"/>
  <circle cx="16.5" cy="14" r="0.6" fill="currentColor" stroke="none" opacity="0.4"/>
  <circle cx="7" cy="6.5" r="0.7" fill="currentColor" stroke="none" opacity="0.4"/>
  <circle cx="6" cy="16" r="0.6" fill="currentColor" stroke="none" opacity="0.4"/>
  <circle cx="14" cy="18" r="0.7" fill="currentColor" stroke="none" opacity="0.4"/>
</svg>
